<svg width="300" height="300" version="1.1" xmlns="http://www.w3.org/2000/svg" desc="Created with imagetracer.js version 1.2.6" ><path fill="rgb(0,0,0)" stroke="rgb(0,0,0)" stroke-width="1" opacity="0" d="M 0 0 L 300 0 L 300 300 L 0 300 L 0 0 Z M 151 27 L 149 29 L 149 44 L 153 44 L 153 29 L 151 27 Z M 114 42 L 113 45 L 124 56 L 126 55 L 126 52 L 118 44 L 118 42 L 114 42 Z M 186 42 L 179 50 L 176 53 L 177 54 Q 176 56 180 55 L 189 46 L 189 44 L 186 42 Z M 145 52 L 133 58 Q 124 64 122 77 L 122 86 L 127 98 Q 133 107 147 110 Q 162 111 170 104 Q 177 98 180 87 Q 182 72 176 65 Q 171 57 162 53 Q 155 50 145 52 Z M 191 78 L 188 79 L 189 83 L 204 83 L 205 81 L 202 78 L 191 78 Z M 99 79 L 97 82 L 99 83 L 114 83 L 114 79 L 99 79 Z M 124 106 L 113 118 L 117 120 Q 123 116 126 108 L 124 106 Z M 178 106 L 176 108 L 176 110 L 183 118 L 188 120 L 189 117 L 178 106 Z M 151 117 L 149 119 L 149 134 L 153 134 L 154 132 L 153 128 L 153 118 L 151 117 Z M 138 129 L 124 134 L 100 137 L 99 138 L 75 139 L 74 140 L 51 140 L 45 147 L 17 171 Q 12 172 13 179 L 15 180 L 23 180 L 24 181 L 31 181 L 31 182 L 31 213 L 37 213 L 37 213 L 37 181 Q 42 183 52 182 L 53 183 L 92 183 L 93 182 L 96 183 L 96 218 L 99 219 L 102 219 L 102 183 Q 103 180 108 181 L 116 170 L 119 167 L 152 167 L 152 162 L 152 161 L 123 161 L 138 138 L 152 158 L 167 171 L 171 173 L 172 175 L 172 217 L 177 217 L 177 170 Q 165 164 156 154 L 156 152 L 167 139 L 180 160 L 180 161 L 172 161 L 172 163 L 178 167 Q 183 168 185 166 L 191 177 L 196 181 L 200 181 L 201 183 L 201 214 L 206 213 L 207 213 L 207 182 L 214 182 L 215 183 L 251 183 L 252 182 L 267 182 L 266 189 L 267 208 L 270 209 L 272 209 L 272 200 L 273 197 L 272 181 L 289 179 Q 291 178 290 175 L 269 156 L 256 143 L 253 139 L 252 140 L 233 140 L 232 139 L 207 138 L 206 137 L 182 134 L 165 129 L 155 145 L 152 147 Q 144 140 140 131 L 138 129 Z M 236 195 L 234 197 L 235 203 Q 238 208 248 207 L 247 201 Q 244 195 236 195 Z M 66 198 L 63 202 Q 62 208 65 210 L 72 213 L 74 209 L 73 203 Q 71 198 66 198 Z M 118 208 L 115 214 L 115 221 Q 116 225 121 224 L 125 219 L 124 212 Q 123 207 118 208 Z M 245 211 L 236 213 L 228 213 L 209 217 L 177 227 L 160 230 L 151 230 L 150 231 L 124 229 L 85 219 L 74 217 L 66 217 L 65 216 L 43 216 L 42 217 L 29 218 L 19 221 L 17 223 L 17 229 L 24 228 Q 30 230 41 229 L 42 230 L 60 232 L 110 248 L 138 253 L 169 253 L 186 250 L 209 243 L 240 231 L 268 226 L 284 226 L 284 217 L 265 212 L 245 211 Z M 157 212 L 153 214 L 149 219 Q 148 225 150 227 L 157 225 Q 162 223 160 214 L 157 212 Z M 251 232 L 250 237 L 251 242 Q 254 246 260 247 L 262 242 L 261 238 Q 258 233 251 232 Z M 44 233 L 36 236 Q 33 240 34 247 L 42 246 L 46 241 Q 47 235 44 233 Z " /><path fill="rgb(0,0,0)" stroke="rgb(0,0,0)" stroke-width="1" opacity="0" d="M 173.5 137 L 182.5 140 L 199.5 142 L 200.5 143 L 220.5 144 L 221.5 145 L 249.5 145 L 279 172.5 L 277.5 175 L 258.5 176 L 257.5 177 L 207.5 177 L 206.5 176 L 198.5 176 L 197 174.5 L 174 140.5 L 173.5 137 Z M 182 143 L 185 152 Q 192 159 196 169 Q 198 174 205 173 L 203 168 Q 194 157 188 144 L 182 143 Z M 193 145 L 212 173 L 219 173 L 200 147 L 200 145 L 193 145 Z M 207 147 L 207 150 L 222 171 Q 224 176 232 174 L 214 149 Q 213 145 207 147 Z M 218 147 L 235 171 Q 237 176 245 174 L 244 171 L 228 152 L 225 148 L 218 147 Z M 231 148 L 232 152 L 245 167 L 252 173 L 259 173 L 259 172 L 240 152 L 238 149 L 231 148 Z M 243 148 L 243 151 L 266 173 L 273 173 L 273 172 L 249 148 L 243 148 Z " /><path fill="rgb(0,0,0)" stroke="rgb(0,0,0)" stroke-width="1" opacity="0" d="M 126.5 138 L 130 138.5 L 104.5 176 Q 99 174.5 97.5 177 L 48.5 177 L 47.5 176 L 32.5 176 L 31.5 175 L 24 175 L 28.5 169 L 54.5 145 L 85.5 145 L 86.5 144 L 94.5 144 L 95.5 143 L 104.5 143 L 105.5 142 L 116.5 141 L 126.5 138 Z M 119 143 L 117 144 L 97 173 L 104 173 L 122 144 L 119 143 Z M 106 145 L 104 146 L 84 173 Q 84 176 91 174 L 98 166 L 111 146 L 106 145 Z M 91 147 L 70 174 L 79 174 L 97 149 Q 98 145 91 147 Z M 56 148 L 30 172 L 38 173 L 61 149 L 56 148 Z M 70 148 L 66 149 L 43 173 L 52 173 Q 64 163 72 149 L 70 148 Z M 79 148 L 57 173 L 58 174 L 65 174 L 85 149 L 79 148 Z " /><path fill="rgb(0,0,0)" stroke="rgb(0,0,0)" stroke-width="1" opacity="0" d="M 234.5 219 L 237 220.5 L 235.5 223 L 229.5 223 L 215.5 228 L 214 225.5 L 223.5 221 L 234.5 219 Z " /><path fill="rgb(0,0,0)" stroke="rgb(0,0,0)" stroke-width="1" opacity="0" d="M 58 223 L 67.5 223 L 83 228 L 81.5 231 L 65.5 226 L 58 226 L 58 223 Z " /><path fill="rgb(0,0,0)" stroke="rgb(0,0,0)" stroke-width="1" opacity="0" d="M 192.5 227 Q 199 226 201 229.5 L 202 236.5 L 197.5 242 L 189.5 243 Q 186.1 240.4 187 233.5 L 190.5 228 L 192.5 227 Z M 195 229 L 190 233 Q 188 238 192 240 L 197 239 Q 200 237 200 233 L 195 229 Z " /><path fill="rgb(0,0,0)" stroke="rgb(0,0,0)" stroke-width="1" opacity="0" d="M 102.5 230 Q 111.3 228.3 113 233.5 L 114 239.5 L 111.5 243 Q 104.2 243.8 101 240.5 L 99 232.5 L 102.5 230 Z M 102 232 L 102 237 L 107 240 Q 114 242 111 235 Q 109 231 102 232 Z " /><path fill="rgb(0,0,0)" stroke="rgb(0,0,0)" stroke-width="1" opacity="0" d="M 174.5 236 Q 177.1 235.2 176 238.5 L 174.5 240 L 161.5 243 L 137.5 243 L 136 240.5 L 138.5 239 L 139.5 240 L 160.5 240 L 174.5 236 Z " /><path fill="rgb(226,161,74)" stroke="rgb(226,161,74)" stroke-width="1" opacity="1" d="M 150.5 27 L 153 28.5 L 153 43.5 L 149 44 L 149 28.5 L 150.5 27 Z " /><path fill="rgb(226,161,74)" stroke="rgb(226,161,74)" stroke-width="1" opacity="1" d="M 114 42 L 118 42 L 118 43.5 L 126 51.5 L 126 55 L 123.5 56 L 113 44.5 L 114 42 Z " /><path fill="rgb(226,161,74)" stroke="rgb(226,161,74)" stroke-width="1" opacity="1" d="M 185.5 42 L 189 43.5 L 189 45.5 L 179.5 55 Q 176.2 56.1 177 53.5 L 176 52.5 L 179 49.5 L 185.5 42 Z " /><path fill="rgb(226,161,74)" stroke="rgb(226,161,74)" stroke-width="1" opacity="1" d="M 144.5 52 Q 155.3 50.3 161.5 53 Q 170.9 56.6 176 64.5 Q 181.7 71.8 180 86.5 Q 177.3 97.8 169.5 104 Q 161.8 110.8 146.5 110 Q 133.5 107 127 97.5 L 122 85.5 L 122 76.5 Q 124.4 64.4 132.5 58 L 144.5 52 Z " /><path fill="rgb(226,161,74)" stroke="rgb(226,161,74)" stroke-width="1" opacity="1" d="M 190.5 78 L 201.5 78 L 205 80.5 L 203.5 83 L 188.5 83 L 188 79 L 190.5 78 Z " /><path fill="rgb(226,161,74)" stroke="rgb(226,161,74)" stroke-width="1" opacity="1" d="M 98.5 79 L 113.5 79 L 114 83 L 98.5 83 L 97 81.5 L 98.5 79 Z " /><path fill="rgb(226,161,74)" stroke="rgb(226,161,74)" stroke-width="1" opacity="1" d="M 123.5 106 L 126 107.5 Q 123.1 115.6 116.5 120 L 113 117.5 L 123.5 106 Z " /><path fill="rgb(226,161,74)" stroke="rgb(226,161,74)" stroke-width="1" opacity="1" d="M 177.5 106 L 189 116.5 L 187.5 120 L 183 117.5 L 176 109.5 L 176 107.5 L 177.5 106 Z " /><path fill="rgb(226,161,74)" stroke="rgb(226,161,74)" stroke-width="1" opacity="1" d="M 150.5 117 L 153 117.5 L 153 127.5 L 154 131.5 L 153 134 L 149 133.5 L 149 118.5 L 150.5 117 Z " /><path fill="rgb(226,161,74)" stroke="rgb(226,161,74)" stroke-width="1" opacity="1" d="M 137.5 129 L 140 130.5 L 138.5 130 L 137.5 129 Z " /><path fill="rgb(226,161,74)" stroke="rgb(226,161,74)" stroke-width="1" opacity="1" d="M 164.5 129 L 166 129.5 L 163.5 131 L 164.5 129 Z " /><path fill="rgb(226,161,74)" stroke="rgb(226,161,74)" stroke-width="1" opacity="1" d="M 89.5 138 L 92 138.5 L 89.5 139 L 89.5 138 Z " /><path fill="rgb(226,161,74)" stroke="rgb(226,161,74)" stroke-width="1" opacity="1" d="M 166.5 138 L 167.5 140 L 165 139.5 L 166.5 138 Z " /><path fill="rgb(226,161,74)" stroke="rgb(226,161,74)" stroke-width="1" opacity="1" d="M 212.5 138 L 216 138.5 L 212.5 139 L 212.5 138 Z " /><path fill="rgb(226,161,74)" stroke="rgb(226,161,74)" stroke-width="1" opacity="1" d="M 74.5 139 L 79 139.5 L 74.5 140 L 74.5 139 Z " /><path fill="rgb(226,161,74)" stroke="rgb(226,161,74)" stroke-width="1" opacity="1" d="M 138.5 139 L 139.5 141 L 138.5 139 Z " /><path fill="rgb(226,161,74)" stroke="rgb(226,161,74)" stroke-width="1" opacity="1" d="M 227.5 139 L 232 139.5 L 227.5 140 L 227.5 139 Z " /><path fill="rgb(226,161,74)" stroke="rgb(226,161,74)" stroke-width="1" opacity="1" d="M 254.5 141 L 255.5 143 L 254.5 141 Z " /><path fill="rgb(226,161,74)" stroke="rgb(226,161,74)" stroke-width="1" opacity="1" d="M 48.5 142 L 45.5 146 L 48.5 142 Z " /><path fill="rgb(226,161,74)" stroke="rgb(226,161,74)" stroke-width="1" opacity="1" d="M 156.5 142 L 155.5 144 L 156.5 142 Z " /><path fill="rgb(226,161,74)" stroke="rgb(226,161,74)" stroke-width="1" opacity="1" d="M 92.5 143 L 95 143.5 L 92.5 144 L 92.5 143 Z " /><path fill="rgb(226,161,74)" stroke="rgb(226,161,74)" stroke-width="1" opacity="1" d="M 210.5 143 L 213 143.5 L 210.5 144 L 210.5 143 Z " /><path fill="rgb(226,161,74)" stroke="rgb(226,161,74)" stroke-width="1" opacity="1" d="M 82.5 144 L 86 144.5 L 82.5 145 L 82.5 144 Z " /><path fill="rgb(226,161,74)" stroke="rgb(226,161,74)" stroke-width="1" opacity="1" d="M 221.5 144 L 227 144.5 L 221.5 145 L 221.5 144 Z " /><path fill="rgb(226,161,74)" stroke="rgb(226,161,74)" stroke-width="1" opacity="1" d="M 53.5 145 L 51.5 148 L 53.5 145 Z " /><path fill="rgb(226,161,74)" stroke="rgb(226,161,74)" stroke-width="1" opacity="1" d="M 177.5 145 L 178.5 147 L 177.5 145 Z " /><path fill="rgb(226,161,74)" stroke="rgb(226,161,74)" stroke-width="1" opacity="1" d="M 143.5 146 L 144.5 148 L 143.5 146 Z " /><path fill="rgb(226,161,74)" stroke="rgb(226,161,74)" stroke-width="1" opacity="1" d="M 102.5 147 L 101.5 149 L 102.5 147 Z " /><path fill="rgb(226,161,74)" stroke="rgb(226,161,74)" stroke-width="1" opacity="1" d="M 231.5 148 L 234 148.5 L 231.5 149 L 231.5 148 Z " /><path fill="rgb(226,161,74)" stroke="rgb(226,161,74)" stroke-width="1" opacity="1" d="M 248.5 148 L 261.5 162 L 248.5 148 Z " /><path fill="rgb(226,161,74)" stroke="rgb(226,161,74)" stroke-width="1" opacity="1" d="M 237.5 149 L 239.5 152 L 237.5 149 Z " /><path fill="rgb(226,161,74)" stroke="rgb(226,161,74)" stroke-width="1" opacity="1" d="M 76.5 150 L 75.5 152 L 76.5 150 Z " /><path fill="rgb(226,161,74)" stroke="rgb(226,161,74)" stroke-width="1" opacity="1" d="M 243.5 150 L 244.5 152 L 243.5 150 Z " /><path fill="rgb(226,161,74)" stroke="rgb(226,161,74)" stroke-width="1" opacity="1" d="M 99.5 151 L 98.5 153 L 99.5 151 Z " /><path fill="rgb(226,161,74)" stroke="rgb(226,161,74)" stroke-width="1" opacity="1" d="M 147.5 151 L 148.5 153 L 147.5 151 Z " /><path fill="rgb(226,161,74)" stroke="rgb(226,161,74)" stroke-width="1" opacity="1" d="M 220.5 151 L 221.5 153 L 220.5 151 Z " /><path fill="rgb(226,161,74)" stroke="rgb(226,161,74)" stroke-width="1" opacity="1" d="M 62.5 152 L 58.5 157 L 62.5 152 Z " /><path fill="rgb(226,161,74)" stroke="rgb(226,161,74)" stroke-width="1" opacity="1" d="M 37.5 153 L 35.5 156 L 37.5 153 Z " /><path fill="rgb(226,161,74)" stroke="rgb(226,161,74)" stroke-width="1" opacity="1" d="M 92.5 154 L 91.5 156 L 92.5 154 Z " /><path fill="rgb(226,161,74)" stroke="rgb(226,161,74)" stroke-width="1" opacity="1" d="M 43.5 155 L 39.5 160 L 43.5 155 Z " /><path fill="rgb(226,161,74)" stroke="rgb(226,161,74)" stroke-width="1" opacity="1" d="M 71.5 156 L 70.5 158 L 71.5 156 Z " /><path fill="rgb(226,161,74)" stroke="rgb(226,161,74)" stroke-width="1" opacity="1" d="M 269.5 156 L 271.5 159 L 269.5 156 Z " /><path fill="rgb(226,161,74)" stroke="rgb(226,161,74)" stroke-width="1" opacity="1" d="M 65.5 157 L 63.5 160 L 65.5 157 Z " /><path fill="rgb(226,161,74)" stroke="rgb(226,161,74)" stroke-width="1" opacity="1" d="M 152.5 157 L 158.5 164 L 152.5 157 Z " /><path fill="rgb(226,161,74)" stroke="rgb(226,161,74)" stroke-width="1" opacity="1" d="M 232.5 157 L 233.5 159 L 232.5 157 Z " /><path fill="rgb(226,161,74)" stroke="rgb(226,161,74)" stroke-width="1" opacity="1" d="M 262.5 157 L 264.5 160 L 262.5 157 Z " /><path fill="rgb(226,161,74)" stroke="rgb(226,161,74)" stroke-width="1" opacity="1" d="M 89.5 158 L 88.5 160 L 89.5 158 Z " /><path fill="rgb(226,161,74)" stroke="rgb(226,161,74)" stroke-width="1" opacity="1" d="M 220.5 158 L 221.5 160 L 220.5 158 Z " /><path fill="rgb(226,161,74)" stroke="rgb(226,161,74)" stroke-width="1" opacity="1" d="M 162.5 159 L 164.5 162 L 162.5 159 Z " /><path fill="rgb(226,161,74)" stroke="rgb(226,161,74)" stroke-width="1" opacity="1" d="M 29.5 160 L 27.5 163 L 29.5 160 Z " /><path fill="rgb(226,161,74)" stroke="rgb(226,161,74)" stroke-width="1" opacity="1" d="M 41.5 161 L 38.5 165 L 41.5 161 Z " /><path fill="rgb(226,161,74)" stroke="rgb(226,161,74)" stroke-width="1" opacity="1" d="M 172 161 L 179 161.5 L 172.5 163 L 172 161 Z " /><path fill="rgb(226,161,74)" stroke="rgb(226,161,74)" stroke-width="1" opacity="1" d="M 65.5 163 L 64.5 165 L 65.5 163 Z " /><path fill="rgb(226,161,74)" stroke="rgb(226,161,74)" stroke-width="1" opacity="1" d="M 256.5 163 L 258.5 166 L 256.5 163 Z " /><path fill="rgb(226,161,74)" stroke="rgb(226,161,74)" stroke-width="1" opacity="1" d="M 277.5 163 L 279.5 166 L 277.5 163 Z " /><path fill="rgb(226,161,74)" stroke="rgb(226,161,74)" stroke-width="1" opacity="1" d="M 168.5 164 L 169.5 166 L 168.5 164 Z " /><path fill="rgb(226,161,74)" stroke="rgb(226,161,74)" stroke-width="1" opacity="1" d="M 238.5 164 L 239.5 166 L 238.5 164 Z " /><path fill="rgb(226,161,74)" stroke="rgb(226,161,74)" stroke-width="1" opacity="1" d="M 251.5 164 L 256.5 170 L 251.5 164 Z " /><path fill="rgb(226,161,74)" stroke="rgb(226,161,74)" stroke-width="1" opacity="1" d="M 265.5 164 L 267.5 167 L 265.5 164 Z " /><path fill="rgb(226,161,74)" stroke="rgb(226,161,74)" stroke-width="1" opacity="1" d="M 50.5 165 L 43.5 173 L 50.5 165 Z " /><path fill="rgb(226,161,74)" stroke="rgb(226,161,74)" stroke-width="1" opacity="1" d="M 71.5 165 L 70.5 167 L 71.5 165 Z " /><path fill="rgb(226,161,74)" stroke="rgb(226,161,74)" stroke-width="1" opacity="1" d="M 97.5 165 L 96.5 167 L 97.5 165 Z " /><path fill="rgb(226,161,74)" stroke="rgb(226,161,74)" stroke-width="1" opacity="1" d="M 22.5 166 L 21.5 168 L 22.5 166 Z " /><path fill="rgb(226,161,74)" stroke="rgb(226,161,74)" stroke-width="1" opacity="1" d="M 31.5 166 L 29.5 169 L 31.5 166 Z " /><path fill="rgb(226,161,74)" stroke="rgb(226,161,74)" stroke-width="1" opacity="1" d="M 118.5 166 L 122 166.5 L 117.5 168 L 118.5 166 Z " /><path fill="rgb(226,161,74)" stroke="rgb(226,161,74)" stroke-width="1" opacity="1" d="M 177.5 166 L 183 166.5 L 177.5 167 L 177.5 166 Z " /><path fill="rgb(226,161,74)" stroke="rgb(226,161,74)" stroke-width="1" opacity="1" d="M 245.5 166 L 251.5 173 L 245.5 166 Z " /><path fill="rgb(226,161,74)" stroke="rgb(226,161,74)" stroke-width="1" opacity="1" d="M 272.5 166 L 273.5 168 L 272.5 166 Z " /><path fill="rgb(226,161,74)" stroke="rgb(226,161,74)" stroke-width="1" opacity="1" d="M 56.5 167 L 51.5 173 L 56.5 167 Z " /><path fill="rgb(226,161,74)" stroke="rgb(226,161,74)" stroke-width="1" opacity="1" d="M 185.5 167 L 186.5 169 L 185.5 167 Z " /><path fill="rgb(226,161,74)" stroke="rgb(226,161,74)" stroke-width="1" opacity="1" d="M 32.5 169 L 31.5 171 L 32.5 169 Z " /><path fill="rgb(226,161,74)" stroke="rgb(226,161,74)" stroke-width="1" opacity="1" d="M 73.5 169 L 72.5 171 L 73.5 169 Z " /><path fill="rgb(226,161,74)" stroke="rgb(226,161,74)" stroke-width="1" opacity="1" d="M 94.5 169 L 93.5 171 L 94.5 169 Z " /><path fill="rgb(226,161,74)" stroke="rgb(226,161,74)" stroke-width="1" opacity="1" d="M 165.5 169 L 166.5 171 L 165.5 169 Z " /><path fill="rgb(226,161,74)" stroke="rgb(226,161,74)" stroke-width="1" opacity="1" d="M 284.5 169 L 285.5 171 L 284.5 169 Z " /><path fill="rgb(226,161,74)" stroke="rgb(226,161,74)" stroke-width="1" opacity="1" d="M 59.5 170 L 58 172.5 L 57.5 174 L 57 172.5 L 59.5 170 Z " /><path fill="rgb(226,161,74)" stroke="rgb(226,161,74)" stroke-width="1" opacity="1" d="M 235.5 170 L 236.5 172 L 235.5 170 Z " /><path fill="rgb(226,161,74)" stroke="rgb(226,161,74)" stroke-width="1" opacity="1" d="M 16.5 171 L 13.5 175 L 16.5 171 Z " /><path fill="rgb(226,161,74)" stroke="rgb(226,161,74)" stroke-width="1" opacity="1" d="M 66.5 171 L 64.5 174 L 66.5 171 Z " /><path fill="rgb(226,161,74)" stroke="rgb(226,161,74)" stroke-width="1" opacity="1" d="M 217.5 171 L 218.5 173 L 217.5 171 Z " /><path fill="rgb(226,161,74)" stroke="rgb(226,161,74)" stroke-width="1" opacity="1" d="M 264.5 171 L 265.5 173 L 264.5 171 Z " /><path fill="rgb(226,161,74)" stroke="rgb(226,161,74)" stroke-width="1" opacity="1" d="M 33.5 172 L 36 172.5 L 33.5 173 L 33.5 172 Z " /><path fill="rgb(226,161,74)" stroke="rgb(226,161,74)" stroke-width="1" opacity="1" d="M 195.5 172 L 196.5 174 L 195.5 172 Z " /><path fill="rgb(226,161,74)" stroke="rgb(226,161,74)" stroke-width="1" opacity="1" d="M 202.5 172 L 205 172.5 L 202.5 173 L 202.5 172 Z " /><path fill="rgb(226,161,74)" stroke="rgb(226,161,74)" stroke-width="1" opacity="1" d="M 268.5 172 L 273 172.5 L 268.5 173 L 268.5 172 Z " /><path fill="rgb(226,161,74)" stroke="rgb(226,161,74)" stroke-width="1" opacity="1" d="M 84.5 173 L 91 173.5 L 84.5 174 L 84.5 173 Z " /><path fill="rgb(226,161,74)" stroke="rgb(226,161,74)" stroke-width="1" opacity="1" d="M 279.5 173 L 278.5 175 L 279.5 173 Z " /><path fill="rgb(226,161,74)" stroke="rgb(226,161,74)" stroke-width="1" opacity="1" d="M 29.5 175 L 32 175.5 L 29.5 176 L 29.5 175 Z " /><path fill="rgb(226,161,74)" stroke="rgb(226,161,74)" stroke-width="1" opacity="1" d="M 43.5 176 L 48 176.5 L 43.5 177 L 43.5 176 Z " /><path fill="rgb(226,161,74)" stroke="rgb(226,161,74)" stroke-width="1" opacity="1" d="M 204.5 176 L 207 176.5 L 204.5 177 L 204.5 176 Z " /><path fill="rgb(226,161,74)" stroke="rgb(226,161,74)" stroke-width="1" opacity="1" d="M 258.5 176 L 262 176.5 L 258.5 177 L 258.5 176 Z " /><path fill="rgb(226,161,74)" stroke="rgb(226,161,74)" stroke-width="1" opacity="1" d="M 229.5 177 L 243 177.5 L 229.5 178 L 229.5 177 Z " /><path fill="rgb(226,161,74)" stroke="rgb(226,161,74)" stroke-width="1" opacity="1" d="M 23.5 180 L 28 180.5 L 23.5 181 L 23.5 180 Z " /><path fill="rgb(226,161,74)" stroke="rgb(226,161,74)" stroke-width="1" opacity="1" d="M 274.5 180 L 277 180.5 L 274.5 181 L 274.5 180 Z " /><path fill="rgb(226,161,74)" stroke="rgb(226,161,74)" stroke-width="1" opacity="1" d="M 40.5 181 L 43 181.5 L 40.5 182 L 40.5 181 Z " /><path fill="rgb(226,161,74)" stroke="rgb(226,161,74)" stroke-width="1" opacity="1" d="M 263.5 181 L 266 181.5 L 263.5 182 L 263.5 181 Z " /><path fill="rgb(226,161,74)" stroke="rgb(226,161,74)" stroke-width="1" opacity="1" d="M 52.5 182 L 60 182.5 L 52.5 183 L 52.5 182 Z " /><path fill="rgb(226,161,74)" stroke="rgb(226,161,74)" stroke-width="1" opacity="1" d="M 87.5 182 L 92 182.5 L 87.5 183 L 87.5 182 Z " /><path fill="rgb(226,161,74)" stroke="rgb(226,161,74)" stroke-width="1" opacity="1" d="M 214.5 182 L 219 182.5 L 214.5 183 L 214.5 182 Z " /><path fill="rgb(226,161,74)" stroke="rgb(226,161,74)" stroke-width="1" opacity="1" d="M 238.5 182 L 251 182.5 L 238.5 183 L 238.5 182 Z " /><path fill="rgb(226,161,74)" stroke="rgb(226,161,74)" stroke-width="1" opacity="1" d="M 206.5 183 L 207 185.5 L 206 185.5 L 206.5 183 Z " /><path fill="rgb(226,161,74)" stroke="rgb(226,161,74)" stroke-width="1" opacity="1" d="M 272.5 187 L 273 196.5 L 272 196.5 L 272.5 187 Z " /><path fill="rgb(226,161,74)" stroke="rgb(226,161,74)" stroke-width="1" opacity="1" d="M 266.5 188 L 267 197.5 L 266 197.5 L 266.5 188 Z " /><path fill="rgb(226,161,74)" stroke="rgb(226,161,74)" stroke-width="1" opacity="1" d="M 206.5 204 L 207 206.5 L 206 206.5 L 206.5 204 Z " /><path fill="rgb(226,161,74)" stroke="rgb(226,161,74)" stroke-width="1" opacity="1" d="M 33.5 212 L 37 212.5 L 33.5 213 L 33.5 212 Z " /><path fill="rgb(226,161,74)" stroke="rgb(226,161,74)" stroke-width="1" opacity="1" d="M 156.5 212 L 160 213.5 Q 161.5 222.5 156.5 225 L 150 227 Q 148.3 224.6 149 218.5 L 152.5 214 L 156.5 212 Z " /><path fill="rgb(226,161,74)" stroke="rgb(226,161,74)" stroke-width="1" opacity="1" d="M 199.5 232 L 200 234.5 L 199 234.5 L 199.5 232 Z " /><path fill="rgb(226,161,74)" stroke="rgb(226,161,74)" stroke-width="1" opacity="1" d="M 251 232 Q 257.8 232.5 261 237.5 L 262 241.5 L 259.5 247 Q 253.8 245.8 251 241.5 L 250 236.5 L 251 232 Z " /><path fill="rgb(226,161,74)" stroke="rgb(226,161,74)" stroke-width="1" opacity="1" d="M 43.5 233 Q 46.8 234.7 46 240.5 L 41.5 246 L 34 247 Q 33 239.5 36 236 L 43.5 233 Z " /><path fill="rgb(226,161,74)" stroke="rgb(226,161,74)" stroke-width="1" opacity="1" d="M 109.5 233 L 110.5 235 L 109.5 233 Z " /><path fill="rgb(226,161,74)" stroke="rgb(226,161,74)" stroke-width="1" opacity="1" d="M 190.5 236 L 191 238.5 L 190 238.5 L 190.5 236 Z " /><path fill="rgb(226,161,74)" stroke="rgb(226,161,74)" stroke-width="1" opacity="1" d="M 194.5 238 L 193.5 240 L 192 239.5 L 194.5 238 Z " /><path fill="rgb(206,93,55)" stroke="rgb(206,93,55)" stroke-width="1" opacity="1" d="M 135.5 130 Q 140.3 129.3 141 132.5 L 151.5 148 Q 159.9 140.9 164.5 130 L 168.5 130 L 184.5 135 L 211.5 138 L 212.5 139 L 254 140 L 254 141.5 L 271.5 159 L 289 173.5 L 290 177.5 L 288.5 179 L 274.5 180 L 272 181 L 272 208.5 L 270.5 209 L 267 208 L 267 182.5 L 265.5 181 L 262.5 182 L 238.5 182 L 236.5 183 L 234.5 182 L 233.5 183 L 219.5 183 L 218.5 182 L 207.5 182 L 206 185.5 L 207 187.5 L 207 189.5 Q 208.7 200.3 206 206.5 L 207 211.5 L 201 214 L 201 181.5 Q 200.9 180.4 195.5 181 L 184.5 166 Q 175.8 167.7 173 163.5 Q 172.4 160.8 178.5 162 L 181 160.5 L 166.5 138 L 156 151.5 L 156 153.5 L 177 171.5 L 177 216.5 L 172 217 L 172 174.5 L 169.5 172 L 164.5 169 L 149 153.5 L 137.5 138 L 125 155.5 L 123 161 L 141.5 161 L 142.5 162 L 143.5 161 L 152 161 L 152 166.5 L 151.5 167 L 122.5 167 L 118.5 166 L 107.5 181 Q 102.1 180.4 102 181.5 L 102 218.5 L 99.5 219 L 96 218 L 96 200.5 L 97 199.5 L 96 198.5 L 96 182 L 87.5 182 L 86.5 183 L 60.5 183 L 59.5 182 L 37.5 181 L 36 183.5 L 37 184.5 L 37 212 L 31 213 L 31 181.5 L 28.5 181 L 27.5 180 L 15.5 180 L 13 179 L 13 175.5 L 20.5 168 Q 36.3 156.8 49 142.5 L 50.5 140 L 78.5 140 L 79.5 139 L 100.5 138 L 101.5 137 L 124.5 134 L 135.5 130 Z M 173 137 L 173 140 L 195 173 L 199 176 Q 203 175 205 177 L 243 178 L 245 178 L 246 177 L 273 176 Q 274 174 279 175 L 280 174 L 250 145 L 232 145 L 231 144 L 229 145 L 227 144 L 214 144 L 213 143 L 195 142 L 173 137 Z M 126 138 L 121 140 L 104 142 L 103 143 L 93 143 L 82 145 L 54 145 L 51 149 L 32 166 L 24 175 L 30 176 L 43 176 L 44 177 L 100 177 L 105 176 L 130 139 L 126 138 Z " /><path fill="rgb(206,93,55)" stroke="rgb(206,93,55)" stroke-width="1" opacity="1" d="M 119.5 143 Q 122.1 142.2 121 145.5 L 104 173 L 98.5 173 L 98 171.5 L 116.5 144 L 119.5 143 Z " /><path fill="rgb(206,93,55)" stroke="rgb(206,93,55)" stroke-width="1" opacity="1" d="M 181.5 143 L 186.5 144 L 190 147.5 L 205 171.5 L 200.5 173 L 184 149.5 L 181.5 143 Z " /><path fill="rgb(206,93,55)" stroke="rgb(206,93,55)" stroke-width="1" opacity="1" d="M 106.5 145 L 111 145.5 L 91.5 173 L 84 172.5 L 103 146 L 106.5 145 Z " /><path fill="rgb(206,93,55)" stroke="rgb(206,93,55)" stroke-width="1" opacity="1" d="M 192.5 145 Q 200.5 143.5 202 148.5 L 218 172.5 L 211.5 173 L 192.5 145 Z " /><path fill="rgb(206,93,55)" stroke="rgb(206,93,55)" stroke-width="1" opacity="1" d="M 90 147 L 97 147.5 L 77.5 174 Q 70.5 175.5 71 172.5 Q 82.6 161.1 90 147 Z " /><path fill="rgb(206,93,55)" stroke="rgb(206,93,55)" stroke-width="1" opacity="1" d="M 206.5 147 Q 213.5 145.5 213 148.5 L 232 174 Q 224.9 175.8 223 171.5 L 209 152.5 L 206.5 147 Z " /><path fill="rgb(206,93,55)" stroke="rgb(206,93,55)" stroke-width="1" opacity="1" d="M 55.5 148 Q 60.9 146.1 60 149.5 L 38.5 172 L 36.5 173 L 30 171.5 L 55.5 148 Z " /><path fill="rgb(206,93,55)" stroke="rgb(206,93,55)" stroke-width="1" opacity="1" d="M 78.5 148 Q 84.6 146.8 84 149.5 L 63.5 174 Q 57.4 175.3 58 172.5 L 78.5 148 Z " /><path fill="rgb(206,93,55)" stroke="rgb(206,93,55)" stroke-width="1" opacity="1" d="M 218.5 148 Q 226.5 146.5 228 151.5 L 243 169.5 L 245 174 L 237 173 L 218.5 148 Z " /><path fill="rgb(206,93,55)" stroke="rgb(206,93,55)" stroke-width="1" opacity="1" d="M 243 148 L 246.5 149 L 247.5 148 L 261.5 162 L 273 171.5 L 266.5 173 L 259 166.5 L 256.5 163 L 245 152.5 L 243 148 Z " /><path fill="rgb(206,93,55)" stroke="rgb(206,93,55)" stroke-width="1" opacity="1" d="M 65.5 149 L 72 149.5 L 50.5 173 L 44 172.5 L 65.5 149 Z " /><path fill="rgb(206,93,55)" stroke="rgb(206,93,55)" stroke-width="1" opacity="1" d="M 231.5 149 L 236.5 149 L 251 163.5 L 256.5 170 Q 258.8 169.3 258 171.5 L 258.5 173 L 252.5 173 L 237 157.5 L 231.5 149 Z " /><path fill="rgb(206,93,55)" stroke="rgb(206,93,55)" stroke-width="1" opacity="1" d="M 192.5 230 Q 197.8 228.8 199 231.5 L 198 238 L 195.5 239 L 193.5 239 L 191.5 240 L 190 233.5 L 192.5 230 Z " /><path fill="rgb(206,93,55)" stroke="rgb(206,93,55)" stroke-width="1" opacity="1" d="M 103.5 232 Q 110 231 111 235.5 Q 111.8 239.3 109.5 240 L 103 237.5 L 102 233.5 L 103.5 232 Z " /><path fill="rgb(128,178,169)" stroke="rgb(128,178,169)" stroke-width="1" opacity="1" d="M 235.5 195 L 239 195.5 L 235.5 196 L 235.5 195 Z " /><path fill="rgb(128,178,169)" stroke="rgb(128,178,169)" stroke-width="1" opacity="1" d="M 69.5 199 L 70.5 201 L 69.5 199 Z " /><path fill="rgb(128,178,169)" stroke="rgb(128,178,169)" stroke-width="1" opacity="1" d="M 63.5 201 L 64 205.5 L 63 205.5 L 63.5 201 Z " /><path fill="rgb(128,178,169)" stroke="rgb(128,178,169)" stroke-width="1" opacity="1" d="M 244.5 211 L 255 211.5 L 244.5 212 L 244.5 211 Z " /><path fill="rgb(128,178,169)" stroke="rgb(128,178,169)" stroke-width="1" opacity="1" d="M 236.5 212 L 241 212.5 L 236.5 213 L 236.5 212 Z " /><path fill="rgb(128,178,169)" stroke="rgb(128,178,169)" stroke-width="1" opacity="1" d="M 259.5 212 L 265 212.5 L 259.5 213 L 259.5 212 Z " /><path fill="rgb(128,178,169)" stroke="rgb(128,178,169)" stroke-width="1" opacity="1" d="M 227.5 213 L 231 213.5 L 227.5 214 L 227.5 213 Z " /><path fill="rgb(128,178,169)" stroke="rgb(128,178,169)" stroke-width="1" opacity="1" d="M 267.5 213 L 271 213.5 L 267.5 214 L 267.5 213 Z " /><path fill="rgb(128,178,169)" stroke="rgb(128,178,169)" stroke-width="1" opacity="1" d="M 222.5 214 L 225 214.5 L 222.5 215 L 222.5 214 Z " /><path fill="rgb(128,178,169)" stroke="rgb(128,178,169)" stroke-width="1" opacity="1" d="M 272.5 214 L 275 214.5 L 272.5 215 L 272.5 214 Z " /><path fill="rgb(128,178,169)" stroke="rgb(128,178,169)" stroke-width="1" opacity="1" d="M 217.5 215 L 220 215.5 L 217.5 216 L 217.5 215 Z " /><path fill="rgb(128,178,169)" stroke="rgb(128,178,169)" stroke-width="1" opacity="1" d="M 264 215 Q 267 213.8 266 217.5 L 264 216.5 L 264 215 Z " /><path fill="rgb(128,178,169)" stroke="rgb(128,178,169)" stroke-width="1" opacity="1" d="M 276.5 215 L 279 215.5 L 276.5 216 L 276.5 215 Z " /><path fill="rgb(128,178,169)" stroke="rgb(128,178,169)" stroke-width="1" opacity="1" d="M 42.5 216 L 65 216.5 L 44 217.5 L 47 218 Q 48 221 45 220 L 45 223.5 Q 47 221.8 49 225.5 L 48.5 227 L 51 228.5 Q 47.9 230.9 41.5 230 L 41.5 228 L 39.5 229 L 27.5 229 L 27.5 228 L 36 227.5 L 33 226.5 L 38 223.5 L 35 219 L 37 218.5 L 34 217.5 L 40.5 217 L 42.5 218 L 42.5 216 Z " /><path fill="rgb(128,178,169)" stroke="rgb(128,178,169)" stroke-width="1" opacity="1" d="M 213.5 216 L 217 217.5 L 216.5 219 L 216 217 Q 212.7 217.8 213.5 216 Z " /><path fill="rgb(128,178,169)" stroke="rgb(128,178,169)" stroke-width="1" opacity="1" d="M 67.5 217 L 74 217.5 L 71 218 L 71.5 220 Q 73 217.5 74.5 221 L 77 219.5 L 76.5 218 L 80 218.5 L 78 219.5 L 80 220.5 Q 76.2 221.8 77 226 L 75 225.5 L 76 222 L 73 222.5 L 74 225 L 72 224.5 L 72.5 223 L 68.5 224 L 68.5 222 L 58 223 L 57.5 226 L 57 223.5 Q 58.9 220.3 65 222 L 64 219.5 L 67.5 217 Z " /><path fill="rgb(128,178,169)" stroke="rgb(128,178,169)" stroke-width="1" opacity="1" d="M 208.5 217 L 211 217.5 L 208.5 218 L 208.5 217 Z " /><path fill="rgb(128,178,169)" stroke="rgb(128,178,169)" stroke-width="1" opacity="1" d="M 28.5 218 L 32 218.5 L 28.5 219 L 28.5 218 Z " /><path fill="rgb(128,178,169)" stroke="rgb(128,178,169)" stroke-width="1" opacity="1" d="M 213 218 L 215 218.5 L 213.5 221 L 213 218 Z " /><path fill="rgb(128,178,169)" stroke="rgb(128,178,169)" stroke-width="1" opacity="1" d="M 82.5 219 L 85 219.5 L 82.5 220 L 82.5 219 Z " /><path fill="rgb(128,178,169)" stroke="rgb(128,178,169)" stroke-width="1" opacity="1" d="M 230.5 219 L 234 219.5 L 230.5 220 L 230.5 219 Z " /><path fill="rgb(128,178,169)" stroke="rgb(128,178,169)" stroke-width="1" opacity="1" d="M 264 219 L 267 220.5 L 264 221 L 264 219 Z " /><path fill="rgb(128,178,169)" stroke="rgb(128,178,169)" stroke-width="1" opacity="1" d="M 283.5 219 L 284 226 L 282 225.5 L 283.5 219 Z " /><path fill="rgb(128,178,169)" stroke="rgb(128,178,169)" stroke-width="1" opacity="1" d="M 86.5 220 L 89 220.5 L 86.5 221 L 86.5 220 Z " /><path fill="rgb(128,178,169)" stroke="rgb(128,178,169)" stroke-width="1" opacity="1" d="M 225.5 220 L 228 220.5 L 225.5 221 L 225.5 220 Z " /><path fill="rgb(128,178,169)" stroke="rgb(128,178,169)" stroke-width="1" opacity="1" d="M 83.5 221 L 84 223 L 82 222.5 L 83.5 221 Z " /><path fill="rgb(128,178,169)" stroke="rgb(128,178,169)" stroke-width="1" opacity="1" d="M 90.5 221 L 98 222.5 L 97.5 224 L 101.5 223 L 101.5 224 Q 98.5 223.1 100 227.5 L 91 231.5 L 90 237 L 86.5 238 L 87.5 235 L 85 236.5 L 84.5 238 L 80 236 Q 78.9 238.7 81.5 238 L 81.5 239 L 77 237.5 L 79 236.5 L 78 234 L 74 232.5 L 74.5 231 L 73 230.5 L 76.5 229 L 76.5 231 L 78.5 230 L 77.5 232 L 76 232.5 L 78.5 234 L 80.5 231 L 83 229.5 L 83.5 228 L 85.5 228 L 87 227.5 L 85 226.5 L 93 222.5 Q 89.7 222.6 90.5 221 Z M 90 225 L 88 227 L 90 227 L 90 225 Z " /><path fill="rgb(128,178,169)" stroke="rgb(128,178,169)" stroke-width="1" opacity="1" d="M 217.5 221 L 220 222.5 L 218.5 223 L 217.5 221 Z " /><path fill="rgb(128,178,169)" stroke="rgb(128,178,169)" stroke-width="1" opacity="1" d="M 237.5 221 L 236.5 223 L 237.5 221 Z " /><path fill="rgb(128,178,169)" stroke="rgb(128,178,169)" stroke-width="1" opacity="1" d="M 259.5 222 L 261.5 223 L 264.5 222 Q 268.7 220.9 267 225 L 262 225.5 L 267 226.5 L 259.5 227 L 256 224.5 L 259.5 222 Z " /><path fill="rgb(128,178,169)" stroke="rgb(128,178,169)" stroke-width="1" opacity="1" d="M 79 224 L 81 224.5 L 80 227 L 82 227.5 L 80.5 228 L 78 226.5 L 79 224 Z " /><path fill="rgb(128,178,169)" stroke="rgb(128,178,169)" stroke-width="1" opacity="1" d="M 214.5 224 L 214 225.5 L 215.5 228 L 217.5 228 L 219 227.5 L 218.5 226 L 221 226 L 221 228 Q 224.8 226.5 224 229.5 L 221.5 230 L 216.5 228 L 215.5 231 L 213 225.5 L 214.5 224 Z " /><path fill="rgb(128,178,169)" stroke="rgb(128,178,169)" stroke-width="1" opacity="1" d="M 225.5 224 L 230 227.5 L 225.5 228 L 222 225.5 L 223.5 225 L 225.5 226 L 225.5 224 Z " /><path fill="rgb(128,178,169)" stroke="rgb(128,178,169)" stroke-width="1" opacity="1" d="M 17.5 225 L 18 228 L 23 228.5 L 17 229 L 17.5 225 Z " /><path fill="rgb(128,178,169)" stroke="rgb(128,178,169)" stroke-width="1" opacity="1" d="M 106.5 225 L 109 225.5 L 105 227 Q 103.8 230 107.5 229 Q 108.3 225.3 113.5 226 L 113.5 227 Q 110.2 225.9 111 228.5 Q 108.8 229.8 111.5 231 L 113 228 L 117.5 227 L 117.5 228 L 116 228.5 L 117 230.5 L 113.5 235 L 109.5 230 L 103 229.5 L 103.5 228 Q 100.9 228.7 102 226 L 104.5 227 L 106.5 225 Z " /><path fill="rgb(128,178,169)" stroke="rgb(128,178,169)" stroke-width="1" opacity="1" d="M 180.5 225 L 183 225.5 L 180.5 226 L 180.5 225 Z " /><path fill="rgb(128,178,169)" stroke="rgb(128,178,169)" stroke-width="1" opacity="1" d="M 60.5 226 L 70 227.5 L 67.5 232 L 62 229.5 L 66 227.5 L 60.5 227 L 60.5 226 Z " /><path fill="rgb(128,178,169)" stroke="rgb(128,178,169)" stroke-width="1" opacity="1" d="M 184 226 L 188 226.5 L 187 228.5 Q 190.5 230 188 231.5 L 187 238.5 L 189.5 243 Q 198.4 243.9 201 238.5 Q 200.3 236.3 202.5 237 L 202 235.5 L 201 230.5 L 202 230.5 L 204 239.5 L 205.5 241 L 208.5 242 L 210.5 241 L 210.5 242 L 187.5 249 L 187.5 248 L 192 247 L 191.5 245 Q 190.3 247.3 189 244.5 L 187 240 L 184 240.5 L 184.5 242 Q 181.5 242.9 183 238.5 L 181.5 237 L 179 238.5 L 179 236 Q 182 237.3 181 233.5 L 183.5 230 Q 185.8 230.8 185 228.5 L 184 226 Z " /><path fill="rgb(128,178,169)" stroke="rgb(128,178,169)" stroke-width="1" opacity="1" d="M 194.5 226 L 197 226.5 L 194.5 227 L 194.5 226 Z " /><path fill="rgb(128,178,169)" stroke="rgb(128,178,169)" stroke-width="1" opacity="1" d="M 172.5 227 L 175 227.5 L 172.5 228 L 172.5 227 Z " /><path fill="rgb(128,178,169)" stroke="rgb(128,178,169)" stroke-width="1" opacity="1" d="M 254.5 227 L 258 227.5 L 254.5 228 L 254.5 227 Z " /><path fill="rgb(128,178,169)" stroke="rgb(128,178,169)" stroke-width="1" opacity="1" d="M 71.5 228 L 74 228.5 L 72 229 Q 73 232 70 231 L 71.5 228 Z " /><path fill="rgb(128,178,169)" stroke="rgb(128,178,169)" stroke-width="1" opacity="1" d="M 120.5 228 L 123 228.5 L 120.5 229 L 120.5 228 Z " /><path fill="rgb(128,178,169)" stroke="rgb(128,178,169)" stroke-width="1" opacity="1" d="M 166.5 228 L 170 228.5 L 166.5 229 L 166.5 228 Z " /><path fill="rgb(128,178,169)" stroke="rgb(128,178,169)" stroke-width="1" opacity="1" d="M 249.5 228 L 253 228.5 L 249.5 229 L 249.5 228 Z " /><path fill="rgb(128,178,169)" stroke="rgb(128,178,169)" stroke-width="1" opacity="1" d="M 124.5 229 L 129 229.5 L 124.5 230 L 124.5 229 Z " /><path fill="rgb(128,178,169)" stroke="rgb(128,178,169)" stroke-width="1" opacity="1" d="M 160.5 229 L 165 229.5 L 160.5 230 L 160.5 229 Z " /><path fill="rgb(128,178,169)" stroke="rgb(128,178,169)" stroke-width="1" opacity="1" d="M 245.5 229 L 248 229.5 L 245.5 230 L 245.5 229 Z " /><path fill="rgb(128,178,169)" stroke="rgb(128,178,169)" stroke-width="1" opacity="1" d="M 49.5 230 L 53 230.5 L 49.5 231 L 49.5 230 Z " /><path fill="rgb(128,178,169)" stroke="rgb(128,178,169)" stroke-width="1" opacity="1" d="M 100.5 230 L 102 230.5 L 99.5 232 L 100.5 230 Z " /><path fill="rgb(128,178,169)" stroke="rgb(128,178,169)" stroke-width="1" opacity="1" d="M 133.5 230 L 141 230.5 L 133.5 231 L 133.5 230 Z " /><path fill="rgb(128,178,169)" stroke="rgb(128,178,169)" stroke-width="1" opacity="1" d="M 150.5 230 L 158 230.5 L 154 231.5 L 160 232 L 159 235.5 L 160.5 236 Q 161.7 233.7 163 236.5 Q 162.1 239.5 166.5 238 L 166.5 239 L 159.5 238 L 159.5 239 L 161 239.5 L 155.5 240 L 151 237.5 L 152 235.5 L 148 233.5 L 153 231.5 Q 149.7 231.6 150.5 230 Z " /><path fill="rgb(128,178,169)" stroke="rgb(128,178,169)" stroke-width="1" opacity="1" d="M 240.5 230 L 243 230.5 L 240.5 231 L 240.5 230 Z " /><path fill="rgb(128,178,169)" stroke="rgb(128,178,169)" stroke-width="1" opacity="1" d="M 55.5 231 L 58 231.5 L 55.5 232 L 55.5 231 Z " /><path fill="rgb(128,178,169)" stroke="rgb(128,178,169)" stroke-width="1" opacity="1" d="M 122 231 L 130 231.5 L 129 234 L 127 234 Q 128.5 237.7 125.5 237 Q 124 240.5 122.5 238 L 121 238.5 L 122 240.5 L 117 244.5 Q 117.9 247.5 113.5 246 L 109.5 248 L 106 246.5 L 107 243 Q 111.6 244.3 113 241.5 L 115 238.5 L 115 236.5 L 116.5 234 L 119.5 233 L 119 234.5 Q 118.3 236.8 120.5 236 Q 124.8 234.3 122 232.5 L 122 231 Z " /><path fill="rgb(128,178,169)" stroke="rgb(128,178,169)" stroke-width="1" opacity="1" d="M 179.5 231 L 180 232.5 L 178.5 235 L 178 233.5 L 179.5 231 Z " /><path fill="rgb(128,178,169)" stroke="rgb(128,178,169)" stroke-width="1" opacity="1" d="M 236.5 231 L 239 231.5 L 225.5 236 L 225.5 235 L 236.5 231 Z " /><path fill="rgb(128,178,169)" stroke="rgb(128,178,169)" stroke-width="1" opacity="1" d="M 60.5 232 L 63 232.5 L 60.5 233 L 60.5 232 Z " /><path fill="rgb(128,178,169)" stroke="rgb(128,178,169)" stroke-width="1" opacity="1" d="M 93 232 L 95 232.5 L 93 233.5 L 93 232 Z " /><path fill="rgb(128,178,169)" stroke="rgb(128,178,169)" stroke-width="1" opacity="1" d="M 99.5 235 L 100 237.5 L 99 237.5 L 99.5 235 Z " /><path fill="rgb(128,178,169)" stroke="rgb(128,178,169)" stroke-width="1" opacity="1" d="M 73.5 236 L 76 236.5 L 73.5 237 L 73.5 236 Z " /><path fill="rgb(128,178,169)" stroke="rgb(128,178,169)" stroke-width="1" opacity="1" d="M 222.5 236 L 224 236.5 L 215.5 240 L 215.5 239 L 222.5 236 Z " /><path fill="rgb(128,178,169)" stroke="rgb(128,178,169)" stroke-width="1" opacity="1" d="M 168.5 237 L 171 237.5 L 168.5 238 L 168.5 237 Z " /><path fill="rgb(128,178,169)" stroke="rgb(128,178,169)" stroke-width="1" opacity="1" d="M 176.5 237 L 177 238.5 L 175 239.5 L 176.5 237 Z " /><path fill="rgb(128,178,169)" stroke="rgb(128,178,169)" stroke-width="1" opacity="1" d="M 139.5 239 L 143 239.5 L 139.5 240 L 139.5 239 Z " /><path fill="rgb(128,178,169)" stroke="rgb(128,178,169)" stroke-width="1" opacity="1" d="M 101.5 241 L 106 242.5 L 105 246 L 102 245.5 L 104 244.5 L 101 242.5 L 101.5 241 Z " /><path fill="rgb(128,178,169)" stroke="rgb(128,178,169)" stroke-width="1" opacity="1" d="M 167.5 241 L 170 241.5 L 167 242.5 L 169.5 244 Q 170.8 241.8 172 244.5 L 171 247.5 L 172 250 L 165.5 251 Q 164.3 248.7 163 251.5 L 169 252.5 L 137.5 253 L 137.5 252 L 144 251.5 Q 141.8 250.3 144.5 249 L 151.5 250 L 153 247.5 L 152 245 L 155.5 246 L 159 244.5 L 141.5 244 L 141.5 245 L 143 245.5 L 140 246 L 140.5 243 L 160.5 243 L 162 243.5 Q 161.1 240.1 166.5 242 L 167.5 241 Z M 154 247 L 154 249 L 157 250 L 159 249 Q 158 246 154 247 Z M 153 250 L 151 252 L 153 252 L 153 250 Z M 162 250 L 159 252 L 162 252 L 162 250 Z " /><path fill="rgb(128,178,169)" stroke="rgb(128,178,169)" stroke-width="1" opacity="1" d="M 92.5 242 L 97 243.5 L 95.5 244 L 92.5 243 L 92.5 242 Z " /><path fill="rgb(128,178,169)" stroke="rgb(128,178,169)" stroke-width="1" opacity="1" d="M 137.5 244 L 138 247.5 L 136 248.5 L 137 245.5 L 137.5 244 Z " /><path fill="rgb(128,178,169)" stroke="rgb(128,178,169)" stroke-width="1" opacity="1" d="M 113.5 248 L 116 248.5 L 113.5 249 L 113.5 248 Z " /><path fill="rgb(128,178,169)" stroke="rgb(128,178,169)" stroke-width="1" opacity="1" d="M 118.5 249 L 121 249.5 L 118.5 250 L 118.5 249 Z " /><path fill="rgb(128,178,169)" stroke="rgb(128,178,169)" stroke-width="1" opacity="1" d="M 141.5 249 L 142 251 L 140 250.5 L 141.5 249 Z " /><path fill="rgb(128,178,169)" stroke="rgb(128,178,169)" stroke-width="1" opacity="1" d="M 182.5 249 L 186 249.5 L 182.5 250 L 182.5 249 Z " /><path fill="rgb(128,178,169)" stroke="rgb(128,178,169)" stroke-width="1" opacity="1" d="M 123.5 250 L 127 250.5 L 123.5 251 L 123.5 250 Z " /><path fill="rgb(128,178,169)" stroke="rgb(128,178,169)" stroke-width="1" opacity="1" d="M 178.5 250 L 181 250.5 L 178.5 251 L 178.5 250 Z " /><path fill="rgb(128,178,169)" stroke="rgb(128,178,169)" stroke-width="1" opacity="1" d="M 129.5 251 L 134 251.5 L 129.5 252 L 129.5 251 Z " /><path fill="rgb(128,178,169)" stroke="rgb(128,178,169)" stroke-width="1" opacity="1" d="M 170.5 251 L 176 251.5 L 170.5 252 L 170.5 251 Z " /><path fill="rgb(110,167,157)" stroke="rgb(110,167,157)" stroke-width="1" opacity="1" d="M 234 196 Q 243 194.3 246 199.5 L 248 205.5 Q 247.3 207.8 243.5 207 L 237.5 205 L 235 202.5 L 234 196 Z " /><path fill="rgb(110,167,157)" stroke="rgb(110,167,157)" stroke-width="1" opacity="1" d="M 65.5 198 L 72 201 L 74 207.5 L 72 213 Q 66.6 212.4 64 207.5 L 64 199.5 L 65.5 198 Z " /><path fill="rgb(110,167,157)" stroke="rgb(110,167,157)" stroke-width="1" opacity="1" d="M 119.5 208 L 123 210.5 L 125 217.5 L 121.5 223 L 118.5 224 Q 114.1 222.4 115 215.5 L 119.5 208 Z " /><path fill="rgb(110,167,157)" stroke="rgb(110,167,157)" stroke-width="1" opacity="1" d="M 241.5 212 L 266.5 213 L 279.5 216 L 284 218.5 Q 281.8 219.8 283 224.5 L 281.5 226 L 262 225.5 L 267 225 Q 268.7 220.9 264.5 222 L 261.5 223 L 259.5 222 L 256 224.5 L 259 226.5 L 228.5 233 L 224.5 236 L 207.5 242 L 204 239.5 L 203.5 236 L 202 236.5 L 203 232.5 L 198.5 227 L 194.5 226 L 188.5 230 L 187 227.5 L 187.5 226 Q 183.1 224.5 184 227.5 L 185 230 L 182 231.5 L 181 236 Q 178 234.8 179 238.5 L 181.5 237 L 183 238.5 Q 181.5 242.9 184.5 242 L 184.5 240 Q 187.8 238.9 187 241.5 L 189.5 245 L 193 244.5 L 192 247 L 177.5 251 L 163.5 252 L 164.5 250 L 166.5 250 Q 172.6 251.3 172 248.5 L 172 246.5 L 170.5 243 L 168.5 244 L 167.5 242 L 177 238.5 L 175.5 236 L 163 238 L 161.5 235 L 159.5 236 L 160 234.5 L 160 232 L 154.5 232 L 154.5 231 L 174.5 228 L 206.5 218 L 231.5 213 L 240.5 213 L 241.5 212 Z M 264 215 L 264 217 L 266 218 Q 267 214 264 215 Z M 213 218 L 214 221 L 215 219 L 213 218 Z M 231 219 L 221 222 L 218 221 L 218 223 L 213 226 L 216 231 L 218 227 L 219 228 L 217 229 L 222 230 L 224 230 Q 225 226 221 228 L 221 226 L 225 225 L 227 227 L 226 226 L 224 227 Q 225 229 230 228 L 227 225 L 237 223 Q 239 222 237 221 Q 237 217 231 219 Z M 264 219 L 264 221 L 267 221 L 264 219 Z " /><path fill="rgb(110,167,157)" stroke="rgb(110,167,157)" stroke-width="1" opacity="1" d="M 44.5 217 L 67 217.5 L 64 219.5 L 65 222 L 58.5 222 L 57 223.5 Q 55.8 227.3 59.5 226 L 66 227.5 L 62 229.5 L 67.5 232 L 69.5 228 L 71 228.5 L 70 231 Q 73 232 72 229 L 74.5 229 L 74.5 230 L 73 230.5 L 75 231.5 Q 72.8 232.8 75.5 234 L 78 233.5 L 76 232.5 L 78 231.5 L 76 230.5 L 77.5 230 L 80 231.5 L 78 235.5 L 78.5 237 L 62.5 232 L 48 229.5 L 51 228.5 L 48 226.5 Q 50.7 224.8 46.5 223 L 45 223.5 L 45 220 Q 48 221 47 218 Q 43.7 218.8 44.5 217 Z " /><path fill="rgb(110,167,157)" stroke="rgb(110,167,157)" stroke-width="1" opacity="1" d="M 32.5 218 L 37 218.5 L 35 219 L 35.5 221 L 37 220.5 Q 34.5 222 38 223.5 L 36.5 225 L 33 226.5 L 36 227.5 L 18 228 L 17 222 L 32.5 218 Z " /><path fill="rgb(110,167,157)" stroke="rgb(110,167,157)" stroke-width="1" opacity="1" d="M 71 218 Q 75.6 216.8 77 219.5 L 74.5 221 Q 72.8 217.9 71 219.5 L 71 218 Z " /><path fill="rgb(110,167,157)" stroke="rgb(110,167,157)" stroke-width="1" opacity="1" d="M 78.5 219 L 93 222.5 L 89 224.5 L 90 227 L 88 226.5 L 88.5 225 L 85 226.5 L 87 227.5 L 84.5 229 L 80 227 L 81 224.5 L 79 224 Q 80 227 77 226 Q 76.2 221.7 80 220.5 L 78.5 219 Z M 84 221 L 82 223 L 84 223 L 84 221 Z " /><path fill="rgb(110,167,157)" stroke="rgb(110,167,157)" stroke-width="1" opacity="1" d="M 66.5 222 L 69 222.5 L 66.5 223 L 66.5 222 Z " /><path fill="rgb(110,167,157)" stroke="rgb(110,167,157)" stroke-width="1" opacity="1" d="M 73.5 222 Q 77.7 220.9 76 225 Q 73.3 226.1 74 223.5 L 72.5 224 L 71 223.5 L 73.5 222 Z " /><path fill="rgb(110,167,157)" stroke="rgb(110,167,157)" stroke-width="1" opacity="1" d="M 100 224 L 106 225.5 L 105.5 227 L 109.5 226 L 107.5 229 Q 104.2 230.1 105 227.5 L 102 226 Q 100.9 228.7 103.5 228 L 102.5 230 L 99 231.5 L 99 237.5 L 102.5 244 L 104 244.5 L 101.5 245 L 80 238 Q 78.9 235.3 81.5 236 L 84.5 238 L 86.5 235 L 88 235.5 L 86.5 238 L 90 237 L 92.5 230 L 98.5 229 L 100 227.5 L 100 224 Z M 93 232 L 93 234 L 95 233 L 93 232 Z " /><path fill="rgb(110,167,157)" stroke="rgb(110,167,157)" stroke-width="1" opacity="1" d="M 111 227 L 115 227.5 L 113 228 L 114 230.5 Q 111.8 231.7 114.5 233 L 117 229.5 L 116.5 228 L 133.5 231 L 153 231.5 L 148 233.5 L 152 235.5 L 151 237.5 L 154.5 239 L 156 238.5 L 154.5 240 L 143.5 240 L 142.5 239 L 136 239 L 136 243 L 140 243 Q 138.3 247.1 142.5 246 L 142.5 245 L 141 244.5 L 158.5 244 L 158.5 245 L 154.5 246 L 152 245 L 153.5 249 L 154 247 Q 157.8 246 159 248.5 L 156.5 250 L 154.5 249 L 153 252 L 151 251.5 L 151.5 250 L 144.5 249 L 143.5 252 L 134.5 252 L 112 247.5 Q 113.2 245 117 246 L 118.5 243 L 122 240.5 L 121 238.5 L 122.5 238 Q 124 240.5 125.5 237 L 127 237 L 127 234 Q 129.7 235.1 129 232.5 L 129.5 231 L 122.5 231 L 122 232.5 Q 124.8 234.3 120.5 236 Q 118.3 236.8 119 234.5 L 119.5 233 L 115 235.5 L 114.5 237 Q 114.5 231 110 229.5 L 111 227 Z M 138 244 L 136 247 L 138 248 L 138 244 Z M 142 249 L 140 251 L 142 251 L 142 249 Z " /><path fill="rgb(110,167,157)" stroke="rgb(110,167,157)" stroke-width="1" opacity="1" d="M 159.5 238 L 162 238.5 L 159.5 239 L 159.5 238 Z " /><path fill="rgb(110,167,157)" stroke="rgb(110,167,157)" stroke-width="1" opacity="1" d="M 105 243 Q 108.3 241.9 107 246 Q 103.7 247.1 105 243 Z " /><path fill="rgb(110,167,157)" stroke="rgb(110,167,157)" stroke-width="1" opacity="1" d="M 161.5 250 L 162 252 L 159 251.5 L 161.5 250 Z " /></svg>